<svg width="250" height="69" viewBox="0 0 250 69" fill="none" xmlns="http://www.w3.org/2000/svg">
<g clip-path="url(#clip0_5113_4030)">
<path d="M202.562 60.5246C202.718 60.8329 202.82 61.1292 202.862 61.4193C202.562 61.5463 202.256 61.643 201.944 61.6974C201.632 61.7518 201.296 61.782 200.93 61.782C200.378 61.782 199.874 61.6914 199.43 61.51C198.986 61.3287 198.608 61.0687 198.302 60.7241C197.996 60.3856 197.762 59.9685 197.6 59.4849C197.438 58.9952 197.354 58.4511 197.354 57.8406C197.354 57.23 197.438 56.6678 197.6 56.1721C197.762 55.6764 197.996 55.2472 198.302 54.8965C198.608 54.5459 198.98 54.2739 199.424 54.0865C199.862 53.8991 200.36 53.8024 200.906 53.8024C201.314 53.8024 201.662 53.8326 201.95 53.887C202.244 53.9414 202.502 54.014 202.73 54.0925C202.718 54.2558 202.688 54.4069 202.64 54.552C202.592 54.691 202.538 54.8421 202.472 54.9993C202.364 54.9631 202.262 54.9328 202.16 54.9026C202.058 54.8724 201.956 54.8482 201.842 54.8301C201.728 54.8059 201.602 54.7938 201.464 54.7817C201.326 54.7696 201.17 54.7636 200.99 54.7636C200.216 54.7636 199.61 55.0295 199.184 55.5615C198.752 56.0935 198.536 56.8552 198.536 57.8527C198.536 58.3605 198.596 58.8018 198.716 59.1766C198.836 59.5514 199.01 59.8597 199.226 60.1015C199.448 60.3433 199.712 60.5307 200.018 60.6516C200.33 60.7725 200.672 60.8329 201.056 60.8329C201.356 60.8329 201.626 60.8088 201.866 60.7604C202.106 60.712 202.334 60.6395 202.55 60.5428L202.562 60.5246Z" fill="#3F5B70"/>
<path d="M206.18 61.782C205.754 61.782 205.382 61.7095 205.058 61.5644C204.74 61.4193 204.47 61.2138 204.26 60.9599C204.05 60.706 203.888 60.3977 203.786 60.047C203.684 59.6964 203.63 59.3156 203.63 58.9105C203.63 58.5055 203.684 58.1247 203.786 57.774C203.888 57.4234 204.05 57.1212 204.26 56.8612C204.47 56.6013 204.74 56.4018 205.058 56.2507C205.376 56.0995 205.754 56.027 206.18 56.027C206.606 56.027 206.978 56.0995 207.302 56.2507C207.62 56.4018 207.89 56.6073 208.1 56.8612C208.316 57.1212 208.472 57.4234 208.574 57.774C208.676 58.1247 208.73 58.5055 208.73 58.9105C208.73 59.3156 208.676 59.6964 208.574 60.047C208.472 60.3977 208.31 60.6999 208.1 60.9599C207.884 61.2198 207.62 61.4193 207.302 61.5644C206.984 61.7095 206.606 61.782 206.18 61.782ZM206.18 60.9357C206.672 60.9357 207.032 60.7543 207.266 60.3977C207.5 60.041 207.62 59.5392 207.62 58.9045C207.62 58.2698 207.5 57.768 207.266 57.4174C207.032 57.0607 206.666 56.8854 206.18 56.8854C205.694 56.8854 205.328 57.0607 205.1 57.4174C204.866 57.774 204.752 58.2698 204.752 58.9045C204.752 59.5392 204.866 60.041 205.1 60.3977C205.328 60.7543 205.694 60.9357 206.18 60.9357Z" fill="#3F5B70"/>
<path d="M210.062 56.1418C210.14 56.1298 210.218 56.1177 210.29 56.1116C210.362 56.1056 210.44 56.0995 210.518 56.0995C210.596 56.0995 210.668 56.0995 210.734 56.1116C210.8 56.1177 210.872 56.1298 210.95 56.1418C210.974 56.2507 210.992 56.3957 211.016 56.5771C211.04 56.7584 211.046 56.9096 211.046 57.0365C211.118 56.9156 211.208 56.7947 211.316 56.6738C211.424 56.5529 211.55 56.4441 211.694 56.3474C211.838 56.2507 212 56.1721 212.186 56.1116C212.372 56.0512 212.576 56.0209 212.792 56.0209C213.416 56.0209 213.878 56.2023 214.178 56.565C214.478 56.9277 214.628 57.4597 214.628 58.173V61.6672C214.55 61.6793 214.46 61.6913 214.364 61.6974C214.262 61.7034 214.178 61.7095 214.1 61.7095C214.022 61.7095 213.932 61.7095 213.836 61.6974C213.74 61.6913 213.65 61.6793 213.572 61.6672V58.4632C213.572 57.9554 213.494 57.5806 213.338 57.3388C213.182 57.097 212.93 56.9761 212.594 56.9761C212.396 56.9761 212.204 57.0124 212.03 57.0849C211.85 57.1574 211.694 57.2663 211.562 57.4174C211.424 57.5685 211.316 57.762 211.238 58.0038C211.154 58.2456 211.118 58.5297 211.118 58.8682V61.6611C211.04 61.6732 210.95 61.6853 210.854 61.6913C210.758 61.6974 210.668 61.7034 210.59 61.7034C210.512 61.7034 210.422 61.7034 210.326 61.6913C210.224 61.6853 210.14 61.6732 210.062 61.6611V56.1479V56.1418Z" fill="#3F5B70"/>
<path d="M216.075 60.6576C216.267 60.7362 216.477 60.7967 216.711 60.845C216.939 60.8934 217.173 60.9176 217.401 60.9176C217.563 60.9176 217.719 60.8994 217.869 60.8632C218.019 60.8269 218.151 60.7725 218.259 60.6999C218.367 60.6274 218.457 60.5428 218.523 60.4339C218.589 60.3312 218.625 60.2163 218.625 60.0833C218.625 59.9382 218.601 59.8234 218.547 59.7267C218.493 59.636 218.421 59.5574 218.331 59.4909C218.241 59.4244 218.139 59.37 218.019 59.3216C217.899 59.2733 217.773 59.2309 217.641 59.1886L217.269 59.0496C216.813 58.8803 216.483 58.6869 216.279 58.4692C216.075 58.2516 215.967 57.9615 215.967 57.5987C215.967 57.1091 216.141 56.7222 216.483 56.4381C216.825 56.1539 217.335 56.0089 218.001 56.0089C218.277 56.0089 218.553 56.033 218.817 56.0874C219.081 56.1418 219.315 56.2023 219.513 56.2748C219.501 56.4199 219.471 56.559 219.435 56.704C219.393 56.8491 219.345 56.9821 219.291 57.103C219.135 57.0486 218.949 56.9882 218.733 56.9338C218.517 56.8794 218.283 56.8552 218.037 56.8552C217.773 56.8552 217.539 56.9035 217.341 56.9942C217.137 57.0849 217.035 57.2542 217.035 57.4899C217.035 57.6108 217.059 57.7136 217.107 57.8043C217.155 57.8889 217.227 57.9615 217.311 58.0219C217.395 58.0824 217.491 58.1368 217.605 58.1791C217.713 58.2214 217.833 58.2637 217.965 58.306L218.433 58.4692C218.601 58.5297 218.763 58.5962 218.919 58.6748C219.069 58.7534 219.201 58.8501 219.315 58.971C219.423 59.0919 219.513 59.2309 219.579 59.4002C219.645 59.5695 219.681 59.769 219.681 60.0047C219.681 60.2707 219.627 60.5125 219.519 60.7302C219.411 60.9478 219.261 61.1352 219.063 61.2863C218.865 61.4435 218.631 61.5584 218.355 61.649C218.079 61.7397 217.773 61.776 217.437 61.776C217.101 61.776 216.795 61.7518 216.543 61.7034C216.285 61.6551 216.051 61.5946 215.829 61.516C215.841 61.3709 215.871 61.2259 215.919 61.0808C215.967 60.9357 216.015 60.7906 216.075 60.6455V60.6576Z" fill="#3F5B70"/>
<path d="M221.175 56.9882H220.341L220.299 56.837L222.135 54.7756H222.219V56.1419H223.605C223.635 56.2628 223.647 56.4018 223.647 56.5529C223.647 56.6315 223.647 56.7101 223.635 56.7766C223.629 56.8491 223.617 56.9217 223.605 56.9942H222.219V59.509C222.219 59.8113 222.231 60.0531 222.255 60.2284C222.279 60.4098 222.321 60.5428 222.381 60.6395C222.441 60.7362 222.525 60.8027 222.627 60.8329C222.729 60.8632 222.861 60.8813 223.017 60.8813C223.137 60.8813 223.251 60.8752 223.359 60.8571C223.467 60.839 223.563 60.8208 223.647 60.7967C223.695 60.9417 223.725 61.0868 223.737 61.238C223.749 61.3891 223.755 61.5221 223.755 61.6369C223.611 61.6732 223.461 61.6974 223.305 61.7155C223.149 61.7337 222.981 61.7397 222.801 61.7397C222.291 61.7397 221.889 61.6128 221.601 61.3649C221.313 61.1171 221.169 60.6999 221.169 60.1196V56.9942L221.175 56.9882Z" fill="#3F5B70"/>
<path d="M224.739 56.1419C224.817 56.1298 224.889 56.1177 224.961 56.1116C225.033 56.1056 225.105 56.0995 225.183 56.0995C225.261 56.0995 225.339 56.0995 225.417 56.1116C225.495 56.1177 225.567 56.1298 225.633 56.1419C225.657 56.2507 225.675 56.3897 225.699 56.565C225.723 56.7403 225.729 56.8915 225.729 57.0124C225.879 56.7706 226.077 56.559 226.323 56.3776C226.569 56.1963 226.881 56.1116 227.265 56.1116C227.319 56.1116 227.379 56.1116 227.439 56.1116C227.499 56.1116 227.553 56.1237 227.595 56.1298C227.607 56.1963 227.619 56.2628 227.625 56.3353C227.631 56.4079 227.637 56.4804 227.637 56.559C227.637 56.6436 227.637 56.7343 227.619 56.825C227.607 56.9156 227.595 57.0063 227.583 57.091C227.523 57.0789 227.469 57.0668 227.409 57.0668H227.265C227.073 57.0668 226.887 57.091 226.713 57.1454C226.539 57.1998 226.383 57.2965 226.245 57.4295C226.107 57.5685 225.993 57.7499 225.915 57.9857C225.831 58.2214 225.795 58.5237 225.795 58.8985V61.637C225.717 61.649 225.627 61.6611 225.531 61.6672C225.435 61.6732 225.345 61.6793 225.267 61.6793C225.189 61.6793 225.099 61.6793 225.003 61.6672C224.907 61.6611 224.817 61.649 224.733 61.637V56.1237L224.739 56.1419Z" fill="#3F5B70"/>
<path d="M228.591 56.1419C228.669 56.1298 228.759 56.1177 228.855 56.1116C228.957 56.1056 229.041 56.0996 229.113 56.0996C229.191 56.0996 229.281 56.0996 229.377 56.1116C229.479 56.1177 229.563 56.1298 229.641 56.1419V59.1645C229.641 59.509 229.671 59.7932 229.737 60.0168C229.803 60.2405 229.899 60.4219 230.025 60.5488C230.151 60.6758 230.307 60.7664 230.493 60.8148C230.679 60.8632 230.889 60.8874 231.135 60.8874C231.495 60.8874 231.807 60.845 232.065 60.7664V56.1358C232.143 56.1237 232.233 56.1116 232.329 56.1056C232.425 56.0995 232.515 56.0935 232.593 56.0935C232.671 56.0935 232.761 56.0935 232.857 56.1056C232.953 56.1116 233.037 56.1237 233.121 56.1358V61.4798C232.869 61.5523 232.575 61.6188 232.233 61.6853C231.891 61.7518 231.531 61.782 231.159 61.782C230.811 61.782 230.481 61.7518 230.175 61.6914C229.863 61.6309 229.593 61.504 229.359 61.3226C229.125 61.1352 228.939 60.8753 228.807 60.5367C228.669 60.1982 228.603 59.7569 228.603 59.2068V56.1419H228.591Z" fill="#3F5B70"/>
<path d="M238.371 60.712C238.425 60.8148 238.479 60.9357 238.521 61.0868C238.563 61.238 238.587 61.3891 238.593 61.5463C238.365 61.6248 238.131 61.6853 237.885 61.7216C237.639 61.7639 237.369 61.782 237.069 61.782L236.877 62.2656C236.913 62.2596 236.979 62.2535 237.069 62.2535C237.441 62.2535 237.717 62.3382 237.909 62.5135C238.095 62.6828 238.191 62.9064 238.191 63.1664C238.191 63.523 238.053 63.7951 237.771 63.9704C237.489 64.1517 237.117 64.2364 236.643 64.2364C236.541 64.2364 236.421 64.2303 236.271 64.2122C236.121 64.2001 235.977 64.1638 235.833 64.1034C235.839 64.0006 235.851 63.8978 235.869 63.789C235.887 63.6802 235.923 63.5774 235.983 63.4807C236.217 63.5593 236.439 63.6016 236.643 63.6016C236.865 63.6016 237.039 63.5654 237.177 63.4868C237.315 63.4082 237.381 63.3054 237.381 63.1724C237.381 63.0273 237.315 62.9306 237.189 62.8702C237.063 62.8157 236.889 62.7855 236.679 62.7855C236.577 62.7855 236.481 62.7916 236.379 62.8097C236.277 62.8218 236.181 62.8399 236.091 62.8641C236.079 62.8581 236.055 62.8399 236.025 62.8097C236.157 62.4289 236.295 62.0661 236.433 61.7155C235.755 61.5886 235.251 61.2742 234.921 60.7846C234.585 60.2949 234.417 59.6662 234.417 58.8985C234.417 58.4874 234.471 58.1126 234.585 57.762C234.693 57.4113 234.861 57.1091 235.089 56.8491C235.311 56.5892 235.593 56.3897 235.923 56.2386C236.253 56.0874 236.637 56.0149 237.081 56.0149C237.375 56.0149 237.633 56.033 237.873 56.0753C238.107 56.1177 238.329 56.1721 238.533 56.2507C238.533 56.3716 238.515 56.5106 238.485 56.6678C238.455 56.8249 238.407 56.964 238.353 57.0849C238.173 57.0305 237.993 56.9821 237.801 56.9519C237.609 56.9217 237.399 56.9035 237.171 56.9035C236.619 56.9035 236.199 57.0849 235.923 57.4476C235.647 57.8103 235.509 58.2939 235.509 58.9045C235.509 59.5937 235.665 60.0954 235.983 60.4218C236.301 60.7422 236.721 60.9055 237.249 60.9055C237.465 60.9055 237.657 60.8934 237.837 60.8631C238.017 60.8329 238.197 60.7846 238.389 60.712H238.371Z" fill="#3F5B70"/>
<path d="M242.662 58.0219C242.662 57.5988 242.554 57.3025 242.344 57.1393C242.128 56.9761 241.821 56.8915 241.413 56.8915C241.161 56.8915 240.933 56.9096 240.717 56.9519C240.501 56.9942 240.291 57.0426 240.081 57.1091C239.943 56.8733 239.877 56.5892 239.877 56.2628C240.117 56.1842 240.387 56.1237 240.675 56.0814C240.969 56.0391 241.245 56.0149 241.515 56.0149C242.224 56.0149 242.77 56.1781 243.136 56.5046C243.508 56.831 243.688 57.3509 243.688 58.0703V61.5221C243.436 61.5825 243.136 61.637 242.782 61.6974C242.428 61.7579 242.061 61.7881 241.695 61.7881C241.347 61.7881 241.029 61.7579 240.753 61.6914C240.471 61.6249 240.231 61.5221 240.039 61.377C239.841 61.2319 239.691 61.0506 239.583 60.8269C239.475 60.6032 239.421 60.3372 239.421 60.0229C239.421 59.7085 239.481 59.4425 239.607 59.2128C239.733 58.9831 239.901 58.7897 240.111 58.6325C240.327 58.4814 240.567 58.3665 240.849 58.2879C241.131 58.2093 241.419 58.1731 241.725 58.1731C241.953 58.1731 242.14 58.1731 242.284 58.1912C242.428 58.2033 242.554 58.2154 242.65 58.2275V58.0219H242.662ZM239.823 54.4734C239.931 54.3283 240.069 54.2074 240.237 54.1046C240.405 54.0019 240.609 53.9474 240.843 53.9474C240.993 53.9474 241.137 53.9716 241.269 54.02C241.407 54.0684 241.533 54.1228 241.659 54.1832C241.785 54.2376 241.911 54.292 242.038 54.3464C242.164 54.3948 242.302 54.419 242.446 54.419C242.566 54.419 242.68 54.3948 242.782 54.3525C242.884 54.3102 243.01 54.2195 243.16 54.0865C243.316 54.2799 243.43 54.4976 243.502 54.7394C243.388 54.8784 243.244 54.9933 243.07 55.096C242.896 55.1988 242.692 55.2472 242.47 55.2472C242.32 55.2472 242.176 55.223 242.044 55.1746C241.906 55.1263 241.779 55.0719 241.647 55.0114C241.521 54.957 241.395 54.9026 241.269 54.8482C241.143 54.7998 241.017 54.7756 240.879 54.7756C240.735 54.7756 240.615 54.7998 240.519 54.8482C240.417 54.8965 240.297 54.9872 240.159 55.1081C240.081 55.0054 240.015 54.9086 239.955 54.7998C239.901 54.6971 239.853 54.5882 239.829 54.4734H239.823ZM242.662 59.0677C242.554 59.0556 242.422 59.0375 242.254 59.0254C242.091 59.0133 241.953 59.0012 241.839 59.0012C241.401 59.0012 241.059 59.0859 240.831 59.2491C240.597 59.4123 240.483 59.6662 240.483 59.9987C240.483 60.2163 240.525 60.3795 240.603 60.5065C240.681 60.6274 240.777 60.7241 240.897 60.7846C241.017 60.8511 241.143 60.8873 241.287 60.9055C241.431 60.9176 241.563 60.9297 241.695 60.9297C241.857 60.9297 242.025 60.9236 242.2 60.9055C242.374 60.8873 242.53 60.8632 242.662 60.8269V59.0738V59.0677Z" fill="#3F5B70"/>
<path d="M247.45 61.782C247.024 61.782 246.652 61.7095 246.328 61.5644C246.01 61.4193 245.74 61.2138 245.53 60.9599C245.314 60.6999 245.158 60.3977 245.056 60.047C244.954 59.6964 244.9 59.3156 244.9 58.9105C244.9 58.5055 244.954 58.1247 245.056 57.774C245.158 57.4234 245.32 57.1212 245.53 56.8612C245.746 56.6013 246.01 56.4018 246.328 56.2507C246.646 56.0995 247.024 56.027 247.45 56.027C247.876 56.027 248.248 56.0995 248.572 56.2507C248.89 56.4018 249.16 56.6073 249.37 56.8612C249.586 57.1212 249.742 57.4234 249.844 57.774C249.946 58.1247 250 58.5055 250 58.9105C250 59.3156 249.946 59.6964 249.844 60.047C249.742 60.3977 249.58 60.6999 249.37 60.9599C249.154 61.2198 248.89 61.4193 248.572 61.5644C248.254 61.7095 247.876 61.782 247.45 61.782ZM247.45 60.9357C247.942 60.9357 248.302 60.7543 248.536 60.3977C248.77 60.041 248.89 59.5392 248.89 58.9045C248.89 58.2698 248.77 57.768 248.536 57.4174C248.302 57.0607 247.936 56.8854 247.45 56.8854C246.964 56.8854 246.598 57.0607 246.37 57.4174C246.136 57.774 246.022 58.2698 246.022 58.9045C246.022 59.5392 246.136 60.041 246.37 60.3977C246.598 60.7543 246.964 60.9357 247.45 60.9357Z" fill="#3F5B70"/>
<path d="M125.531 53.6754H129.971C129.995 53.8266 130.007 53.9898 130.007 54.1711C130.007 54.2558 130.007 54.3404 130.007 54.4311C130.007 54.5218 129.995 54.6064 129.977 54.6789H126.683V57.0124H129.311C129.323 57.0849 129.335 57.1696 129.347 57.2542C129.353 57.3388 129.359 57.4234 129.359 57.5081C129.359 57.5927 129.359 57.6773 129.347 57.768C129.341 57.8587 129.329 57.9433 129.311 58.0159H126.683V60.8027H130.067C130.091 60.9539 130.103 61.1171 130.103 61.2984C130.103 61.3831 130.103 61.4677 130.103 61.5584C130.103 61.6491 130.091 61.7337 130.073 61.8062H125.543V53.6633L125.531 53.6754Z" fill="#3F5B70"/>
<path d="M131.405 56.0089C131.489 55.9968 131.567 55.9847 131.645 55.9726C131.723 55.9666 131.807 55.9605 131.885 55.9605C131.963 55.9605 132.047 55.9605 132.113 55.9726C132.185 55.9787 132.263 55.9908 132.341 56.0089C132.365 56.1238 132.383 56.2749 132.407 56.4683C132.431 56.6618 132.443 56.819 132.443 56.952C132.515 56.825 132.611 56.6981 132.731 56.5651C132.845 56.4381 132.977 56.3233 133.127 56.2205C133.277 56.1177 133.451 56.0331 133.643 55.9726C133.835 55.9061 134.051 55.8759 134.285 55.8759C134.945 55.8759 135.431 56.0694 135.749 56.4502C136.061 56.8311 136.223 57.3933 136.223 58.1429V61.8244C136.139 61.8365 136.049 61.8486 135.941 61.8607C135.833 61.8667 135.743 61.8728 135.659 61.8728C135.575 61.8728 135.485 61.8728 135.383 61.8607C135.281 61.8546 135.191 61.8425 135.107 61.8244V58.4512C135.107 57.9132 135.023 57.5202 134.861 57.2663C134.699 57.0124 134.435 56.8855 134.075 56.8855C133.865 56.8855 133.667 56.9217 133.481 57.0003C133.295 57.0729 133.127 57.1938 132.989 57.3509C132.845 57.5081 132.731 57.7137 132.647 57.9676C132.563 58.2215 132.515 58.5237 132.515 58.8804V61.8244C132.431 61.8365 132.341 61.8486 132.239 61.8607C132.137 61.8667 132.047 61.8728 131.963 61.8728C131.879 61.8728 131.789 61.8728 131.681 61.8607C131.573 61.8546 131.483 61.8425 131.399 61.8244V56.015L131.405 56.0089Z" fill="#3F5B70"/>
<path d="M140.94 61.0748C141.606 61.0929 142.092 61.232 142.392 61.504C142.692 61.776 142.842 62.1508 142.842 62.6224C142.842 62.9307 142.764 63.2088 142.608 63.4566C142.452 63.7045 142.236 63.916 141.954 64.0914C141.678 64.2667 141.348 64.4057 140.97 64.4964C140.592 64.5931 140.183 64.6354 139.739 64.6354C138.965 64.6354 138.377 64.5145 137.975 64.2727C137.573 64.0309 137.369 63.6501 137.369 63.1302C137.369 62.8219 137.453 62.5438 137.615 62.2959C137.777 62.0481 137.993 61.8546 138.257 61.7156C138.107 61.6189 137.981 61.4919 137.879 61.3468C137.777 61.2017 137.729 61.0143 137.729 60.7967C137.729 60.5186 137.789 60.2768 137.915 60.0713C138.041 59.8658 138.203 59.6844 138.413 59.5272C138.167 59.3519 137.969 59.1282 137.819 58.8562C137.669 58.5781 137.597 58.2698 137.597 57.9192C137.597 57.6351 137.651 57.363 137.753 57.1152C137.855 56.8673 138.011 56.6497 138.209 56.4623C138.407 56.2749 138.653 56.1298 138.947 56.027C139.241 55.9243 139.571 55.8699 139.949 55.8699C140.286 55.8699 140.592 55.9182 140.868 56.015C141.144 56.1117 141.378 56.2386 141.57 56.3898C141.72 56.2689 141.924 56.1661 142.176 56.0875C142.428 56.0089 142.71 55.9666 143.022 55.9666C143.052 56.1117 143.07 56.2689 143.07 56.4442C143.07 56.5288 143.07 56.6134 143.058 56.7041C143.052 56.7948 143.04 56.8855 143.022 56.9761H142.008C142.092 57.1031 142.152 57.2421 142.2 57.3933C142.242 57.5444 142.266 57.7197 142.266 57.9132C142.266 58.2215 142.212 58.4995 142.098 58.7534C141.984 59.0013 141.828 59.2189 141.618 59.3942C141.414 59.5695 141.168 59.7086 140.88 59.7993C140.598 59.896 140.286 59.9383 139.949 59.9383C139.643 59.9383 139.367 59.902 139.115 59.8355C139.007 59.896 138.905 59.9867 138.803 60.1136C138.701 60.2406 138.653 60.3736 138.653 60.5186C138.653 60.6516 138.701 60.7725 138.797 60.8753C138.893 60.9781 139.109 61.0325 139.451 61.0385L140.946 61.0627L140.94 61.0748ZM139.421 61.9695C139.085 61.9634 138.833 62.0541 138.665 62.2415C138.497 62.4289 138.413 62.6586 138.413 62.9186C138.413 63.0818 138.449 63.2208 138.515 63.3236C138.581 63.4264 138.677 63.5171 138.803 63.5775C138.929 63.644 139.073 63.6863 139.241 63.7105C139.409 63.7347 139.595 63.7528 139.799 63.7528C140.4 63.7528 140.868 63.6501 141.204 63.4506C141.54 63.2511 141.708 62.9972 141.708 62.6949C141.708 62.4712 141.636 62.2959 141.492 62.175C141.348 62.0541 141.09 61.9876 140.706 61.9816L139.421 61.9574V61.9695ZM139.937 59.1343C140.34 59.1343 140.64 59.0194 140.838 58.7958C141.03 58.5721 141.132 58.2759 141.132 57.9252C141.132 57.5746 141.036 57.2663 140.838 57.0366C140.64 56.8069 140.346 56.692 139.937 56.692C139.529 56.692 139.235 56.8069 139.043 57.0366C138.851 57.2663 138.755 57.5625 138.755 57.9252C138.755 58.288 138.851 58.5721 139.043 58.7958C139.235 59.0194 139.529 59.1343 139.937 59.1343Z" fill="#3F5B70"/>
<path d="M144.726 59.1947C144.738 59.8295 144.906 60.295 145.212 60.5851C145.524 60.8814 145.98 61.0264 146.586 61.0264C147.12 61.0264 147.624 60.9297 148.104 60.7423C148.164 60.8572 148.212 60.9962 148.248 61.1534C148.284 61.3166 148.308 61.4738 148.314 61.637C148.068 61.7398 147.798 61.8244 147.498 61.8728C147.204 61.9272 146.874 61.9514 146.514 61.9514C145.992 61.9514 145.542 61.8788 145.164 61.7277C144.792 61.5826 144.48 61.371 144.234 61.105C143.988 60.839 143.814 60.5186 143.7 60.1559C143.586 59.7872 143.532 59.3882 143.532 58.9469C143.532 58.5056 143.586 58.1126 143.694 57.7378C143.802 57.363 143.97 57.0426 144.192 56.7646C144.414 56.4865 144.702 56.2689 145.038 56.1056C145.38 55.9424 145.782 55.8638 146.244 55.8638C146.64 55.8638 146.988 55.9303 147.288 56.0694C147.588 56.2024 147.84 56.3898 148.044 56.6316C148.248 56.8673 148.398 57.1515 148.506 57.4839C148.608 57.8104 148.662 58.1671 148.662 58.5539C148.662 58.6628 148.662 58.7716 148.65 58.8864C148.644 59.0013 148.632 59.1041 148.626 59.1887H144.702L144.726 59.1947ZM147.582 58.3545C147.582 58.1429 147.552 57.9434 147.498 57.7499C147.444 57.5565 147.36 57.3872 147.252 57.2482C147.144 57.1031 147.006 56.9882 146.838 56.9036C146.67 56.819 146.466 56.7706 146.238 56.7706C145.782 56.7706 145.428 56.9096 145.188 57.1877C144.942 57.4658 144.798 57.8587 144.744 58.3545H147.588H147.582Z" fill="#3F5B70"/>
<path d="M150.09 56.0089C150.174 55.9968 150.252 55.9847 150.33 55.9726C150.408 55.9666 150.492 55.9605 150.57 55.9605C150.648 55.9605 150.732 55.9605 150.798 55.9726C150.87 55.9787 150.948 55.9908 151.026 56.0089C151.05 56.1238 151.068 56.2749 151.092 56.4683C151.116 56.6618 151.128 56.819 151.128 56.952C151.2 56.825 151.296 56.6981 151.416 56.5651C151.53 56.4381 151.662 56.3233 151.812 56.2205C151.962 56.1177 152.136 56.0331 152.328 55.9726C152.52 55.9061 152.736 55.8759 152.97 55.8759C153.63 55.8759 154.116 56.0694 154.434 56.4502C154.746 56.8311 154.908 57.3933 154.908 58.1429V61.8244C154.824 61.8365 154.734 61.8486 154.626 61.8607C154.518 61.8667 154.428 61.8728 154.344 61.8728C154.26 61.8728 154.17 61.8728 154.068 61.8607C153.966 61.8546 153.876 61.8425 153.792 61.8244V58.4512C153.792 57.9132 153.708 57.5202 153.546 57.2663C153.384 57.0124 153.12 56.8855 152.76 56.8855C152.55 56.8855 152.352 56.9217 152.166 57.0003C151.98 57.0729 151.812 57.1938 151.674 57.3509C151.53 57.5081 151.416 57.7137 151.332 57.9676C151.248 58.2215 151.2 58.5237 151.2 58.8804V61.8244C151.116 61.8365 151.026 61.8486 150.924 61.8607C150.822 61.8667 150.732 61.8728 150.648 61.8728C150.564 61.8728 150.474 61.8728 150.366 61.8607C150.258 61.8546 150.168 61.8425 150.084 61.8244V56.015L150.09 56.0089Z" fill="#3F5B70"/>
<path d="M156.516 53.5183C156.6 53.5062 156.69 53.4941 156.792 53.482C156.894 53.476 156.984 53.4699 157.068 53.4699C157.152 53.4699 157.242 53.4699 157.35 53.482C157.452 53.488 157.548 53.5001 157.632 53.5183V56.8915C157.698 56.7887 157.782 56.6739 157.884 56.553C157.986 56.4321 158.106 56.3232 158.256 56.2205C158.4 56.1177 158.568 56.0331 158.76 55.9726C158.952 55.9061 159.162 55.8759 159.396 55.8759C160.056 55.8759 160.543 56.0693 160.861 56.4502C161.179 56.831 161.341 57.3933 161.341 58.1429V61.8244C161.257 61.8365 161.167 61.8486 161.065 61.8607C160.963 61.8667 160.873 61.8727 160.789 61.8727C160.705 61.8727 160.615 61.8728 160.513 61.8607C160.411 61.8546 160.32 61.8425 160.236 61.8244V58.4512C160.236 57.9131 160.146 57.5202 159.972 57.2663C159.798 57.0124 159.528 56.8855 159.168 56.8855C158.964 56.8855 158.772 56.9217 158.586 56.9943C158.4 57.0668 158.232 57.1817 158.094 57.3328C157.95 57.49 157.842 57.6895 157.758 57.9373C157.674 58.1852 157.632 58.4874 157.632 58.8441V61.8244C157.548 61.8365 157.458 61.8486 157.35 61.8607C157.242 61.8667 157.152 61.8727 157.068 61.8727C156.996 61.8727 156.906 61.8728 156.798 61.8607C156.69 61.8546 156.6 61.8425 156.516 61.8244V53.5243V53.5183Z" fill="#3F5B70"/>
<path d="M166.015 57.9917C166.015 57.5444 165.901 57.2361 165.679 57.0608C165.457 56.8855 165.127 56.8008 164.701 56.8008C164.437 56.8008 164.191 56.819 163.963 56.8613C163.734 56.9036 163.512 56.958 163.296 57.0245C163.152 56.7767 163.08 56.4744 163.08 56.1298C163.332 56.0452 163.614 55.9847 163.927 55.9364C164.233 55.8941 164.533 55.8699 164.815 55.8699C165.565 55.8699 166.135 56.0391 166.525 56.3837C166.915 56.7283 167.107 57.2784 167.107 58.0341V61.6672C166.843 61.7277 166.525 61.7881 166.153 61.8546C165.781 61.9211 165.397 61.9514 165.007 61.9514C164.641 61.9514 164.311 61.9151 164.01 61.8486C163.716 61.7821 163.464 61.6733 163.254 61.5221C163.05 61.371 162.888 61.1776 162.774 60.9418C162.66 60.706 162.606 60.4219 162.606 60.0894C162.606 59.7569 162.672 59.4789 162.804 59.2371C162.936 58.9892 163.11 58.7897 163.338 58.6265C163.56 58.4633 163.824 58.3424 164.113 58.2638C164.401 58.1852 164.713 58.1429 165.037 58.1429C165.277 58.1429 165.475 58.1429 165.625 58.161C165.781 58.1731 165.907 58.1852 166.015 58.2033V57.9857V57.9917ZM166.015 59.092C165.901 59.0799 165.763 59.0617 165.589 59.0436C165.415 59.0315 165.271 59.0194 165.151 59.0194C164.689 59.0194 164.335 59.1041 164.089 59.2794C163.842 59.4547 163.722 59.7146 163.722 60.0713C163.722 60.295 163.764 60.4763 163.848 60.6033C163.933 60.7302 164.035 60.8269 164.161 60.8995C164.287 60.966 164.419 61.0083 164.569 61.0264C164.719 61.0446 164.863 61.0506 164.995 61.0506C165.169 61.0506 165.343 61.0385 165.529 61.0204C165.715 61.0023 165.877 60.972 166.015 60.9358V59.092Z" fill="#3F5B70"/>
<path d="M168.727 56.0089C168.811 55.9968 168.889 55.9847 168.961 55.9726C169.033 55.9666 169.117 55.9605 169.195 55.9605C169.273 55.9605 169.357 55.9605 169.441 55.9726C169.525 55.9786 169.597 55.9907 169.663 56.0089C169.687 56.1237 169.705 56.2688 169.729 56.4562C169.753 56.6436 169.765 56.8008 169.765 56.9277C169.921 56.6738 170.131 56.4502 170.389 56.2567C170.647 56.0693 170.977 55.9726 171.385 55.9726C171.445 55.9726 171.505 55.9726 171.571 55.9726C171.637 55.9726 171.691 55.9847 171.733 55.9907C171.745 56.0572 171.757 56.1298 171.769 56.2084C171.775 56.2809 171.781 56.3655 171.781 56.4441C171.781 56.5348 171.781 56.6315 171.763 56.7282C171.751 56.825 171.739 56.9217 171.721 57.0124C171.661 57.0003 171.601 56.9882 171.535 56.9882H171.385C171.181 56.9882 170.989 57.0184 170.809 57.0728C170.623 57.1272 170.461 57.23 170.317 57.3751C170.173 57.5202 170.053 57.7136 169.969 57.9615C169.885 58.2093 169.837 58.5297 169.837 58.9227V61.8123C169.753 61.8244 169.663 61.8365 169.561 61.8485C169.459 61.8546 169.369 61.8606 169.285 61.8606C169.201 61.8606 169.111 61.8606 169.009 61.8485C168.907 61.8425 168.811 61.8304 168.721 61.8123V56.0028L168.727 56.0089Z" fill="#3F5B70"/>
<path d="M173.185 56.8915H172.453C172.441 56.831 172.429 56.7585 172.417 56.6799C172.411 56.6013 172.405 56.5227 172.405 56.4502C172.405 56.3776 172.405 56.299 172.417 56.2204C172.423 56.1419 172.435 56.0693 172.453 56.0089H174.271V61.8183C174.187 61.8304 174.097 61.8425 173.995 61.8546C173.893 61.8606 173.803 61.8667 173.719 61.8667C173.647 61.8667 173.557 61.8667 173.455 61.8546C173.353 61.8485 173.263 61.8364 173.179 61.8183V56.8915H173.185ZM172.939 54.7273C172.921 54.6366 172.915 54.5399 172.909 54.4311C172.909 54.3283 172.909 54.2316 172.909 54.1469C172.909 54.0623 172.909 53.9716 172.909 53.8628C172.909 53.76 172.921 53.6633 172.939 53.5787C173.035 53.5666 173.143 53.5545 173.251 53.5424C173.365 53.5364 173.461 53.5303 173.545 53.5303C173.629 53.5303 173.725 53.5303 173.839 53.5424C173.953 53.5485 174.055 53.5606 174.145 53.5787C174.157 53.6633 174.169 53.754 174.175 53.8628C174.175 53.9716 174.175 54.0623 174.175 54.1469C174.175 54.2316 174.175 54.3223 174.175 54.4311C174.175 54.5399 174.163 54.6366 174.145 54.7273C174.055 54.7454 173.953 54.7515 173.845 54.7636C173.737 54.7696 173.641 54.7756 173.557 54.7756C173.467 54.7756 173.365 54.7756 173.251 54.7636C173.137 54.7575 173.035 54.7454 172.939 54.7273Z" fill="#3F5B70"/>
<path d="M179.077 57.9917C179.077 57.5444 178.963 57.2361 178.741 57.0608C178.519 56.8855 178.189 56.8008 177.763 56.8008C177.499 56.8008 177.253 56.819 177.025 56.8613C176.797 56.9036 176.575 56.958 176.359 57.0245C176.215 56.7767 176.143 56.4744 176.143 56.1298C176.395 56.0452 176.677 55.9847 176.989 55.9364C177.295 55.8941 177.595 55.8699 177.877 55.8699C178.627 55.8699 179.197 56.0391 179.587 56.3837C179.977 56.7283 180.169 57.2784 180.169 58.0341V61.6672C179.905 61.7277 179.587 61.7881 179.215 61.8546C178.843 61.9211 178.459 61.9514 178.069 61.9514C177.703 61.9514 177.373 61.9151 177.073 61.8486C176.779 61.7821 176.527 61.6733 176.317 61.5221C176.113 61.371 175.951 61.1776 175.837 60.9418C175.723 60.706 175.669 60.4219 175.669 60.0894C175.669 59.7569 175.735 59.4789 175.867 59.2371C175.999 58.9892 176.173 58.7897 176.401 58.6265C176.623 58.4633 176.887 58.3424 177.175 58.2638C177.463 58.1852 177.775 58.1429 178.099 58.1429C178.339 58.1429 178.537 58.1429 178.687 58.161C178.843 58.1731 178.969 58.1852 179.077 58.2033V57.9857V57.9917ZM179.077 59.092C178.963 59.0799 178.825 59.0617 178.651 59.0436C178.477 59.0315 178.333 59.0194 178.213 59.0194C177.751 59.0194 177.397 59.1041 177.151 59.2794C176.905 59.4547 176.785 59.7146 176.785 60.0713C176.785 60.295 176.827 60.4763 176.911 60.6033C176.995 60.7302 177.097 60.8269 177.223 60.8995C177.349 60.966 177.481 61.0083 177.631 61.0264C177.781 61.0446 177.925 61.0506 178.057 61.0506C178.231 61.0506 178.405 61.0385 178.591 61.0204C178.777 61.0023 178.939 60.972 179.077 60.9358V59.092Z" fill="#3F5B70"/>
<path d="M187.411 55.8275C187.411 56.1358 187.513 56.3837 187.717 56.565C187.921 56.7464 188.245 56.8371 188.695 56.8371H191.024L192.008 55.4829H192.092V56.8371H193.478C193.508 56.958 193.52 57.097 193.52 57.2542C193.52 57.3328 193.52 57.4114 193.508 57.4839C193.502 57.5564 193.49 57.635 193.478 57.7015H192.092V59.2914C192.092 59.7267 192.02 60.1136 191.87 60.44C191.72 60.7725 191.51 61.0445 191.228 61.2622C190.952 61.4798 190.616 61.643 190.232 61.7518C189.842 61.8606 189.416 61.915 188.947 61.915C188.569 61.915 188.209 61.8727 187.861 61.7881C187.513 61.7035 187.207 61.5644 186.937 61.377C186.673 61.1896 186.457 60.9478 186.301 60.6576C186.145 60.3614 186.067 60.0108 186.067 59.5937C186.067 59.3579 186.103 59.1222 186.169 58.8924C186.235 58.6627 186.331 58.4511 186.457 58.2516C186.583 58.0522 186.727 57.8829 186.895 57.7378C187.063 57.5927 187.243 57.4779 187.435 57.3993C187.129 57.2602 186.871 57.0668 186.661 56.8129C186.451 56.559 186.349 56.2144 186.349 55.7852C186.349 55.4709 186.409 55.1988 186.529 54.9631C186.649 54.7333 186.811 54.5338 187.021 54.3827C187.225 54.2316 187.471 54.1167 187.753 54.0381C188.035 53.9656 188.329 53.9233 188.641 53.9233C188.827 53.9233 189.032 53.9354 189.26 53.9656C189.488 53.9958 189.728 54.0502 189.974 54.1349C189.968 54.2981 189.944 54.4432 189.908 54.5701C189.872 54.6971 189.818 54.818 189.74 54.9389C189.554 54.8845 189.38 54.8422 189.205 54.818C189.037 54.7938 188.869 54.7817 188.701 54.7817C188.467 54.7817 188.269 54.8119 188.107 54.8724C187.945 54.9328 187.813 55.0114 187.711 55.1081C187.609 55.2049 187.531 55.3137 187.489 55.4346C187.441 55.5555 187.417 55.6824 187.417 55.8094L187.411 55.8275ZM189.019 60.9539C189.434 60.9539 189.77 60.8994 190.04 60.7906C190.304 60.6818 190.514 60.5428 190.664 60.3614C190.814 60.1801 190.916 59.9745 190.976 59.7388C191.03 59.503 191.06 59.2612 191.06 59.0073V57.7257H188.893C188.635 57.7257 188.407 57.768 188.197 57.8587C187.993 57.9494 187.819 58.0703 187.675 58.2275C187.531 58.3846 187.423 58.566 187.345 58.7715C187.267 58.9771 187.225 59.1947 187.225 59.4244C187.225 59.9201 187.375 60.2949 187.681 60.5609C187.987 60.8209 188.431 60.9539 189.014 60.9539H189.019Z" fill="#3F5B70"/>
<path d="M101.914 25.4685C104.254 27.7657 105.52 30.891 105.52 34.367C105.52 37.843 104.284 40.9986 101.944 43.2958C99.604 45.593 96.5018 46.8383 93.0157 46.8383C89.5296 46.8383 86.3674 45.593 84.0873 43.2958C81.7472 40.9986 80.4812 37.8733 80.4812 34.367C80.4812 30.8608 81.7472 27.7657 84.0873 25.4685C86.4274 23.2015 89.5296 21.9925 93.0157 21.9925C96.5018 21.9925 99.634 23.2015 101.908 25.4685H101.914ZM87.1955 28.4971C85.7374 29.9963 84.9454 32.0699 84.9454 34.4275C84.9454 36.7851 85.7374 38.8284 87.1955 40.3276C88.6835 41.857 90.7416 42.6852 93.0217 42.6852C95.3018 42.6852 97.3239 41.857 98.8119 40.3276C100.27 38.7982 101.062 36.7247 101.062 34.4275C101.062 32.1303 100.27 29.9963 98.8119 28.4971C97.3239 26.9677 95.2958 26.1395 93.0217 26.1395C90.7476 26.1395 88.6835 26.9677 87.1955 28.4971Z" fill="#3F5B70"/>
<path d="M121.889 43.997C120.527 45.7501 118.469 46.8383 116.099 46.8383C113.848 46.8383 111.886 45.9134 110.434 44.1905C109.072 42.5945 108.376 40.521 108.376 38.1634C108.376 35.8058 109.102 33.7625 110.434 32.1666C111.892 30.4437 113.854 29.549 116.099 29.549C118.343 29.549 120.149 30.347 121.541 31.9429V23.0746C121.541 22.6574 121.763 22.4338 122.171 22.4338H124.895C125.309 22.4338 125.525 22.6574 125.525 23.0746V45.7199C125.525 46.137 125.303 46.3547 124.895 46.3547H122.777C122.399 46.3547 122.141 46.1612 122.111 45.7501L121.889 43.997ZM113.722 41.6696C114.574 42.5945 115.751 43.1386 117.077 43.1386C118.403 43.1386 119.579 42.5945 120.431 41.6696C121.223 40.7447 121.697 39.5296 121.697 38.1634C121.697 36.7972 121.223 35.6123 120.431 34.7176C119.543 33.7927 118.403 33.2487 117.077 33.2487C115.751 33.2487 114.574 33.7564 113.722 34.6814C112.93 35.6063 112.456 36.8153 112.456 38.1574C112.456 39.4994 112.93 40.7387 113.722 41.6636V41.6696Z" fill="#3F5B70"/>
<path d="M137.688 46.8383C135.281 46.8383 133.127 45.9436 131.543 44.3175C129.959 42.6913 129.137 40.4908 129.137 38.0667C129.137 35.7695 129.989 33.6356 131.609 32.0396C133.193 30.4135 135.347 29.549 137.622 29.549C140.028 29.549 142.146 30.4437 143.67 32.1001C145.128 33.7262 145.95 35.8965 145.95 38.2843V38.5745C145.95 38.9251 145.698 39.179 145.41 39.179H132.875C133.031 40.2309 133.445 41.0954 134.081 41.8268C134.933 42.7517 136.169 43.2595 137.688 43.2595C139.398 43.2595 140.982 42.4918 141.774 41.1558C141.93 40.8717 142.152 40.7085 142.5 40.7085H145.002C145.416 40.7085 145.668 41.0289 145.542 41.5064C144.942 43.1326 143.928 44.5049 142.47 45.4298C141.108 46.3547 139.434 46.8323 137.688 46.8323V46.8383ZM133.127 36.0597H141.96C141.456 34.1434 139.932 33.0613 137.652 33.0613C136.193 33.0613 134.993 33.5388 134.105 34.4638C133.691 34.9413 133.343 35.4552 133.121 36.0597H133.127Z" fill="#3F5B70"/>
<path d="M158.796 46.8383C156.39 46.8383 154.362 45.7864 152.97 44.0333L152.748 45.7562C152.652 46.1733 152.496 46.3607 152.118 46.3607H150C149.586 46.3607 149.364 46.137 149.364 45.726V23.0806C149.364 22.6635 149.586 22.4398 150 22.4398H152.724C153.138 22.4398 153.36 22.6635 153.36 23.0806V31.8824C154.752 30.3832 156.684 29.555 158.802 29.555C161.052 29.555 163.015 30.4497 164.467 32.1726C165.799 33.7685 166.525 35.8723 166.525 38.1694C166.525 40.4666 165.829 42.6006 164.467 44.1965C163.009 45.9194 161.046 46.8443 158.802 46.8443L158.796 46.8383ZM154.464 41.6696C155.316 42.5945 156.492 43.1386 157.818 43.1386C159.144 43.1386 160.32 42.5945 161.172 41.6696C161.965 40.7447 162.409 39.5296 162.409 38.1634C162.409 36.7972 161.995 35.6123 161.142 34.6874C160.29 33.7625 159.15 33.2547 157.818 33.2547C156.486 33.2547 155.316 33.7625 154.464 34.6874C153.612 35.5821 153.168 36.8214 153.168 38.1634C153.168 39.5054 153.612 40.7447 154.464 41.6696Z" fill="#3F5B70"/>
<path d="M173.269 46.3607H170.449C170.035 46.3607 169.813 46.137 169.813 45.726V34.8506C169.813 33.2245 170.287 32.0457 171.175 31.1812C172.027 30.4135 173.293 30.0024 174.913 30.0024H178.615C179.029 30.0024 179.245 30.2261 179.245 30.6371V33.0915C179.245 33.5086 179.023 33.7323 178.615 33.7323H175.765C174.499 33.7323 173.899 34.3368 173.899 35.5821V45.726C173.899 46.1431 173.677 46.3607 173.269 46.3607Z" fill="#3F5B70"/>
<path d="M189.188 46.8383C186.781 46.8383 184.627 45.9436 183.043 44.3175C181.459 42.6913 180.637 40.4908 180.637 38.0667C180.637 35.7695 181.489 33.6356 183.109 32.0396C184.693 30.4135 186.847 29.549 189.122 29.549C191.528 29.549 193.646 30.4437 195.17 32.1001C196.628 33.7262 197.45 35.8965 197.45 38.2843V38.5745C197.45 38.9251 197.198 39.179 196.91 39.179H184.375C184.531 40.2309 184.945 41.0954 185.581 41.8268C186.433 42.7517 187.669 43.2595 189.188 43.2595C190.898 43.2595 192.482 42.4918 193.274 41.1558C193.43 40.8717 193.652 40.7085 194 40.7085H196.502C196.916 40.7085 197.168 41.0289 197.042 41.5064C196.442 43.1326 195.428 44.5049 193.97 45.4298C192.608 46.3547 190.934 46.8323 189.188 46.8323V46.8383ZM184.633 36.0597H193.466C192.962 34.1434 191.438 33.0613 189.158 33.0613C187.699 33.0613 186.499 33.5388 185.611 34.4638C185.197 34.9413 184.849 35.4552 184.627 36.0597H184.633Z" fill="#3F5B70"/>
<path d="M217.461 41.2525C216.957 42.9754 215.877 44.4081 214.389 45.3995C212.931 46.3245 211.257 46.8323 209.384 46.8323C206.912 46.8323 204.698 46.0041 203.084 44.4081C201.374 42.782 200.486 40.5815 200.486 38.1574C200.486 35.7333 201.434 33.563 203.084 31.9369C204.728 30.4074 206.912 29.543 209.384 29.543C211.251 29.543 212.961 30.0205 214.353 31.012C215.841 32.0034 216.885 33.4361 217.425 35.1892C217.581 35.6063 217.359 35.9207 216.885 35.9207H214.257C213.909 35.9207 213.717 35.7635 213.495 35.4733C212.643 34.0708 211.155 33.2426 209.378 33.2426C207.986 33.2426 206.75 33.7202 205.832 34.6149C204.914 35.5398 204.41 36.7851 204.41 38.1574C204.41 39.5297 204.914 40.8052 205.832 41.7301C206.72 42.6248 207.986 43.1326 209.378 43.1326C211.149 43.1326 212.607 42.3346 213.465 40.9624C213.687 40.6722 213.939 40.5452 214.227 40.5452H216.885C217.359 40.5452 217.581 40.8354 217.455 41.2465L217.461 41.2525Z" fill="#3F5B70"/>
<path d="M224.139 46.3607H221.319C220.905 46.3607 220.683 46.137 220.683 45.726V23.0806C220.683 22.6635 220.905 22.4398 221.319 22.4398H224.139C224.553 22.4398 224.769 22.6635 224.769 23.0806V31.5983C225.879 30.3893 227.493 29.7787 229.515 29.7787H230.277C232.017 29.7787 233.445 30.3832 234.423 31.5318C235.341 32.5837 235.815 34.0829 235.815 35.8723V45.726C235.815 46.1431 235.593 46.3607 235.179 46.3607H232.329C231.915 46.3607 231.693 46.137 231.693 45.726V36.7005C231.693 34.6572 230.679 33.5086 228.909 33.5086H227.991C225.999 33.5086 224.763 34.8144 224.763 37.0813V45.726C224.763 46.1431 224.541 46.3607 224.133 46.3607H224.139Z" fill="#3F5B70"/>
<path d="M249.37 46.3607H247.252C245.482 46.3607 244.054 45.9436 243.076 45.0852C242.062 44.1905 241.528 42.8545 241.528 41.0047V33.7323H238.839C238.425 33.7323 238.209 33.5086 238.209 33.0915V30.6371C238.209 30.22 238.431 30.0024 238.839 30.0024H241.528V26.0488C241.528 25.6317 241.75 25.4141 242.158 25.4141H244.978C245.392 25.4141 245.614 25.6377 245.614 26.0488V30.0024H249.382C249.796 30.0024 250.018 30.226 250.018 30.6371V33.0915C250.018 33.5086 249.796 33.7323 249.382 33.7323H245.614V40.781C245.614 42.0263 246.214 42.6308 247.48 42.6308H249.382C249.796 42.6308 250.018 42.8545 250.018 43.2716V45.726C250.018 46.1431 249.796 46.3607 249.382 46.3607H249.37Z" fill="#3F5B70"/>
<path d="M56.6722 21.4182C57.9682 23.6791 58.8802 26.0548 59.4503 28.4669H67.8926C67.2146 24.6221 65.8765 20.8257 63.8304 17.247C55.4361 2.5813 37.9814 -3.50622 22.7168 2.007L26.935 9.38216C38.1494 6.06938 50.5699 10.7544 56.6722 21.4182Z" fill="#00894B"/>
<path d="M11.7424 47.5818C5.64011 36.9181 7.8242 23.7275 16.2785 15.5906L12.0604 8.21545C-0.306129 18.7946 -3.81027 37.0813 4.58407 51.753C6.60015 55.2774 9.14425 58.3 12.0544 60.7967L16.2785 53.4155C14.5445 51.741 13.0024 49.7944 11.7424 47.5879V47.5818Z" fill="#009CDE"/>
<path d="M47.1798 57.1574C40.7955 60.8752 33.4992 61.5402 26.941 59.6057L22.7168 66.9809C31.8372 70.2574 42.2716 69.6347 51.3079 64.3694C60.2963 59.1342 66.0265 50.411 67.8086 40.8716H59.3543C57.7042 47.4972 53.504 53.4638 47.1738 57.1514L47.1798 57.1574Z" fill="#A9C23C"/>
<path d="M34.2253 15.0103C23.5749 15.0103 14.9465 23.7154 14.9465 34.4577C14.9465 45.2 23.5809 53.9051 34.2253 53.9051C44.8697 53.9051 53.5041 45.2 53.5041 34.4577C53.5041 23.7154 44.8697 15.0103 34.2253 15.0103ZM34.2253 46.935C27.397 46.935 21.8588 41.3492 21.8588 34.4637C21.8588 27.5782 27.397 21.9925 34.2253 21.9925C41.0536 21.9925 46.5918 27.5782 46.5918 34.4637C46.5918 41.3492 41.0536 46.935 34.2253 46.935Z" fill="#3F5B70"/>
</g>
<defs>
<clipPath id="clip0_5113_4030">
<rect width="250" height="69" fill="white"/>
</clipPath>
</defs>
</svg>
